<?xml version="1.0" standalone="no"?>
<!DOCTYPE svg PUBLIC "-//W3C//DTD SVG 20010904//EN"
 "http://www.w3.org/TR/2001/REC-SVG-20010904/DTD/svg10.dtd">
<svg version="1.0" xmlns="http://www.w3.org/2000/svg"
 width="244.000000pt" height="244.000000pt" viewBox="0 0 244.000000 244.000000"
 preserveAspectRatio="xMidYMid meet">
<metadata>
Created by potrace 1.14, written by Peter Selinger 2001-2017
</metadata>
<g transform="translate(0.000000,244.000000) scale(0.100000,-0.100000)"
fill="#ffffff" stroke="none">
<path d="M320 2366 c-144 -40 -248 -139 -298 -281 -21 -59 -21 -70 -21 -875
l1 -816 25 -64 c14 -36 30 -67 35 -68 4 -2 8 -9 8 -15 0 -18 81 -101 125 -129
97 -61 52 -58 1049 -55 l911 2 50 24 c72 35 121 76 165 141 75 110 71 55 68
1005 l-3 850 -30 59 c-27 53 -90 128 -140 166 -11 9 -45 27 -75 40 l-55 25
-885 2 c-691 1 -895 -1 -930 -11z m1810 -158 c73 -34 103 -63 137 -129 27 -54
27 -55 30 -289 1 -129 4 -487 4 -795 2 -515 1 -564 -16 -610 -25 -71 -67 -120
-132 -151 l-56 -28 -854 0 c-942 -1 -908 -3 -990 61 -22 18 -52 57 -68 90
l-30 58 -2 786 c-3 708 -1 791 14 835 9 27 19 51 22 54 3 3 19 22 34 43 29 39
83 71 150 91 28 8 281 11 871 11 l831 -1 55 -26z"/>
<path d="M1014 2048 c-2 -3 -4 -377 -3 -831 l1 -825 76 1 c43 1 82 5 87 9 7 4
10 287 9 820 -1 447 -2 818 -3 824 -1 13 -159 15 -167 2z"/>
<path d="M1347 2040 c-2 -8 -4 -382 -6 -831 l-2 -817 85 1 c70 1 86 4 87 17 0
15 0 1602 -1 1631 0 22 -157 21 -163 -1z"/>
<path d="M1829 2041 c0 -9 -2 -25 -4 -36 -2 -11 -7 -56 -11 -100 -10 -131 -11
-138 -19 -195 -5 -30 -9 -66 -10 -80 -1 -14 -5 -50 -9 -80 -7 -55 -9 -82 -21
-200 -3 -36 -8 -74 -10 -85 -2 -11 -7 -54 -10 -95 -3 -41 -8 -88 -10 -105 -2
-16 -6 -57 -10 -90 -3 -33 -10 -89 -15 -125 -5 -36 -11 -96 -14 -135 -3 -38
-8 -81 -11 -95 -2 -14 -7 -61 -9 -106 -3 -44 -6 -84 -7 -90 -5 -27 5 -31 81
-32 l80 -1 1 32 c2 72 7 124 13 160 3 20 8 53 11 72 l6 35 74 0 c41 0 76 -3
76 -7 1 -5 3 -21 4 -38 1 -16 5 -59 9 -95 21 -176 11 -161 104 -156 97 5 94 4
87 16 -3 5 -8 31 -10 57 -2 27 -7 66 -9 88 -3 22 -8 65 -11 95 -3 30 -8 73
-10 94 -3 22 -7 71 -10 110 -4 38 -8 72 -10 75 -1 3 -6 40 -9 81 -4 41 -8 89
-10 105 -2 17 -7 64 -11 105 -4 41 -9 78 -11 81 -2 3 -6 41 -9 84 -3 42 -7 80
-9 83 -2 4 -7 41 -11 82 -7 78 -10 104 -18 155 -3 17 -8 64 -12 105 -12 136
-24 232 -28 236 -1 1 -44 4 -94 6 -80 4 -93 2 -94 -11z m109 -649 c0 -9 2 -44
6 -77 5 -54 9 -98 21 -230 2 -22 7 -65 11 -95 14 -117 15 -115 -40 -118 -70
-5 -76 0 -66 45 4 21 11 75 14 120 3 45 8 88 11 95 2 7 6 47 9 88 8 125 18
200 27 195 4 -3 7 -13 7 -23z"/>
<path d="M535 2039 c-84 -16 -155 -62 -203 -131 -41 -61 -51 -99 -55 -214 -6
-162 35 -284 133 -394 18 -19 64 -73 103 -120 40 -46 87 -100 104 -119 61 -66
73 -105 74 -255 1 -163 -9 -190 -83 -220 -28 -12 -39 -12 -71 -1 -68 23 -89
66 -92 190 l-2 89 -84 1 -84 0 0 -105 c0 -147 14 -189 89 -265 45 -45 75 -66
112 -79 63 -21 146 -19 202 5 47 20 135 97 126 110 -3 5 -1 9 3 9 8 0 30 39
51 92 6 15 11 95 11 183 0 145 -2 161 -25 212 -28 64 -87 146 -165 231 -90 97
-173 193 -195 226 -29 43 -41 105 -38 210 2 100 15 128 75 159 59 31 135 4
160 -57 7 -16 13 -56 15 -90 1 -33 2 -64 3 -67 1 -3 40 -6 87 -6 l87 0 -5 96
c-4 73 -10 107 -27 139 -33 64 -86 118 -146 147 -59 29 -100 35 -160 24z"/>
</g>
</svg>
